<svg xmlns="http://www.w3.org/2000/svg" xmlns:svg="http://www.w3.org/2000/svg" xmlns:xlink="http://www.w3.org/1999/xlink" id="svg2" width="17" height="57" version="1.0"><metadata id="metadata7"/><defs id="defs5"><linearGradient id="linearGradient3197"><stop id="stop3199" offset="0" style="stop-color:#fff;stop-opacity:.3137255"/><stop id="stop3201" offset="1" style="stop-color:#fff;stop-opacity:0"/></linearGradient><linearGradient id="linearGradient4450"><stop id="stop4452" offset="0" style="stop-color:#acacac;stop-opacity:1"/><stop id="stop4454" offset="1" style="stop-color:#fff;stop-opacity:0"/></linearGradient><linearGradient id="linearGradient3203" x1="-21" x2="-21" y1="2" y2="13" gradientUnits="userSpaceOnUse" xlink:href="#linearGradient3197"/><linearGradient id="linearGradient3010" x1="-21" x2="-21" y1="2" y2="13" gradientUnits="userSpaceOnUse" xlink:href="#linearGradient3197"/></defs><rect id="hint-stretch-borders" width="2.033" height="2.077" x="-2.74" y="-1.341" rx="0" ry="2.077" style="opacity:1;fill:#4e9a06;fill-opacity:1;fill-rule:nonzero;stroke:none;stroke-width:6;stroke-linecap:round;stroke-linejoin:round;stroke-miterlimit:4;stroke-dasharray:none;stroke-dashoffset:0;stroke-opacity:1"/><path id="plain-center" d="M 2.9999995,4.052885 L 2.9999995,15.052885 L 13.999999,15.052885 L 13.999999,4.052885 L 2.9999995,4.052885 z" style="opacity:.15;fill:#1c2122;fill-opacity:1;fill-rule:nonzero;stroke:none;stroke-width:.59999996;stroke-linecap:round;stroke-linejoin:round;stroke-miterlimit:4;stroke-dashoffset:0;stroke-opacity:1"/><path id="plain-top" d="M 3,2.052838 L 3,4.052885 L 13.999999,4.052885 L 13.999999,2.052838 C 13.995886,2.052168 13.992293,2.052838 13.988146,2.052838 L 3.0118538,2.052838 C 3.0077076,2.052838 3.004114,2.052168 3,2.052838 z" style="opacity:.15;fill:#1c2122;fill-opacity:1;fill-rule:nonzero;stroke:none;stroke-width:.59999996;stroke-linecap:round;stroke-linejoin:round;stroke-miterlimit:4;stroke-dashoffset:0;stroke-opacity:1"/><path id="plain-topright" d="M 13.999999,2.052885 L 13.999999,4.052885 L 15.999999,4.052885 C 15.966391,2.961535 15.091355,2.086495 13.999999,2.052885 z" style="opacity:.15;fill:#1c2122;fill-opacity:1;fill-rule:nonzero;stroke:none;stroke-width:.59999996;stroke-linecap:round;stroke-linejoin:round;stroke-miterlimit:4;stroke-dashoffset:0;stroke-opacity:1"/><path id="plain-right" d="M 14,4.052885 L 14,15.052885 L 16,15.052885 C 16.000668,15.034532 16,15.018497 16,15 L 16,4.10577 C 16,4.087273 16.000668,4.071238 16,4.052885 L 14,4.052885 z" style="opacity:.15;fill:#1c2122;fill-opacity:1;fill-rule:nonzero;stroke:none;stroke-width:.59999996;stroke-linecap:round;stroke-linejoin:round;stroke-miterlimit:4;stroke-dashoffset:0;stroke-opacity:1"/><path id="plain-bottomright" d="M 13.965229,15.05254 L 13.965229,17.05254 C 15.056583,17.01893 15.931621,16.14389 15.965229,15.05254 L 13.965229,15.05254 z" style="opacity:.15;fill:#1c2122;fill-opacity:1;fill-rule:nonzero;stroke:none;stroke-width:.59999996;stroke-linecap:round;stroke-linejoin:round;stroke-miterlimit:4;stroke-dashoffset:0;stroke-opacity:1"/><path id="plain-bottom" d="M 2.9881462,15.052539 L 2.9881462,17.052587 C 2.9922602,17.053257 2.9958538,17.052587 3,17.052587 L 13.976293,17.052587 C 13.98044,17.052587 13.984033,17.053257 13.988146,17.052587 L 13.988146,15.052539 L 2.9881462,15.052539 z" style="opacity:.15;fill:#1c2122;fill-opacity:1;fill-rule:nonzero;stroke:none;stroke-width:.59999996;stroke-linecap:round;stroke-linejoin:round;stroke-miterlimit:4;stroke-dashoffset:0;stroke-opacity:1"/><path id="plain-bottomleft" d="M 1,15.052885 C 1.033608,16.144235 1.908646,17.019275 3,17.052885 L 3,15.052885 L 1,15.052885 z" style="opacity:.15;fill:#1c2122;fill-opacity:1;fill-rule:nonzero;stroke:none;stroke-width:.59999996;stroke-linecap:round;stroke-linejoin:round;stroke-miterlimit:4;stroke-dashoffset:0;stroke-opacity:1"/><path id="plain-left" d="M 1.0002969,4.052885 C 0.99962889,4.071238 1.0002969,4.087273 1.0002969,4.10577 L 1.0002969,15 C 1.0002969,15.018497 0.99962889,15.034532 1.0002969,15.052885 L 3.0002969,15.052885 L 3.0002969,4.052885 L 1.0002969,4.052885 z" style="opacity:.15;fill:#1c2122;fill-opacity:1;fill-rule:nonzero;stroke:none;stroke-width:.59999996;stroke-linecap:round;stroke-linejoin:round;stroke-miterlimit:4;stroke-dashoffset:0;stroke-opacity:1"/><path id="plain-topleft" d="M 3,2.052885 C 1.908646,2.086495 1.033608,2.961535 1,4.052885 L 3,4.052885 L 3,2.052885 z" style="opacity:.15;fill:#1c2122;fill-opacity:1;fill-rule:nonzero;stroke:none;stroke-width:.59999996;stroke-linecap:round;stroke-linejoin:round;stroke-miterlimit:4;stroke-dashoffset:0;stroke-opacity:1"/><path id="borderview-center" d="M 2.999999,22.000345 L 2.999999,33.000345 L 13.999999,33.000345 L 13.999999,22.000345 L 2.999999,22.000345 z" style="opacity:0;fill:#f0f;fill-opacity:1;fill-rule:nonzero;stroke:none;stroke-width:.59999996;stroke-linecap:round;stroke-linejoin:round;stroke-miterlimit:4;stroke-dashoffset:0;stroke-opacity:1"/><path id="borderview-top" d="M 3,20.000298 L 3,22.000345 L 13.999999,22.000345 L 13.999999,20.000298 C 13.995886,19.999628 13.992293,20.000298 13.988146,20.000298 L 3.011854,20.000298 C 3.007707,20.000298 3.004114,19.999628 3,20.000298 z" style="opacity:1;fill:#fff;fill-opacity:1;fill-rule:nonzero;stroke:none;stroke-width:.59999996;stroke-linecap:round;stroke-linejoin:round;stroke-miterlimit:4;stroke-dashoffset:0;stroke-opacity:1"/><path id="borderview-topright" d="M 13.999999,20.000345 L 13.999999,22.000345 L 15.999999,22.000345 C 15.966391,20.908995 15.091355,20.033955 13.999999,20.000345 z" style="opacity:1;fill:#fff;fill-opacity:1;fill-rule:nonzero;stroke:none;stroke-width:.59999996;stroke-linecap:round;stroke-linejoin:round;stroke-miterlimit:4;stroke-dashoffset:0;stroke-opacity:1"/><path id="borderview-right" d="M 14,22.000345 L 14,33.000345 L 16,33.000345 C 16.000668,32.981992 16,32.965957 16,32.94746 L 16,22.05323 C 16,22.034733 16.000668,22.018698 16,22.000345 L 14,22.000345 z" style="opacity:1;fill:#fff;fill-opacity:1;fill-rule:nonzero;stroke:none;stroke-width:.59999996;stroke-linecap:round;stroke-linejoin:round;stroke-miterlimit:4;stroke-dashoffset:0;stroke-opacity:1"/><path id="borderview-bottomright" d="M 13.965229,33 L 13.965229,35 C 15.056583,34.96639 15.931621,34.09135 15.965229,33 L 13.965229,33 z" style="opacity:1;fill:#fff;fill-opacity:1;fill-rule:nonzero;stroke:none;stroke-width:.59999996;stroke-linecap:round;stroke-linejoin:round;stroke-miterlimit:4;stroke-dashoffset:0;stroke-opacity:1"/><path id="borderview-bottom" d="M 2.988146,32.999999 L 2.988146,35.000047 C 2.99226,35.000717 2.995854,35.000047 3,35.000047 L 13.976293,35.000047 C 13.98044,35.000047 13.984033,35.000717 13.988146,35.000047 L 13.988146,32.999999 L 2.988146,32.999999 z" style="opacity:1;fill:#fff;fill-opacity:1;fill-rule:nonzero;stroke:none;stroke-width:.59999996;stroke-linecap:round;stroke-linejoin:round;stroke-miterlimit:4;stroke-dashoffset:0;stroke-opacity:1"/><path id="borderview-bottomleft" d="M 1,33.000345 C 1.033608,34.091695 1.908646,34.966735 3,35.000345 L 3,33.000345 L 1,33.000345 z" style="opacity:1;fill:#fff;fill-opacity:1;fill-rule:nonzero;stroke:none;stroke-width:.59999996;stroke-linecap:round;stroke-linejoin:round;stroke-miterlimit:4;stroke-dashoffset:0;stroke-opacity:1"/><path id="borderview-left" d="M 1.000297,22.000345 C 0.999629,22.018698 1.000297,22.034733 1.000297,22.05323 L 1.000297,32.94746 C 1.000297,32.965957 0.999629,32.981992 1.000297,33.000345 L 3.000297,33.000345 L 3.000297,22.000345 L 1.000297,22.000345 z" style="opacity:1;fill:#fff;fill-opacity:1;fill-rule:nonzero;stroke:none;stroke-width:.59999996;stroke-linecap:round;stroke-linejoin:round;stroke-miterlimit:4;stroke-dashoffset:0;stroke-opacity:1"/><path id="borderview-topleft" d="M 3,20.000345 C 1.908646,20.033955 1.033608,20.908995 1,22.000345 L 3,22.000345 L 3,20.000345 z" style="opacity:1;fill:#fff;fill-opacity:1;fill-rule:nonzero;stroke:none;stroke-width:.59999996;stroke-linecap:round;stroke-linejoin:round;stroke-miterlimit:4;stroke-dashoffset:0;stroke-opacity:1"/><g style="opacity:.01" id="plain-overlay"><path id="path2423" d="M -25,2 L -25,13 L -14,13 L -14,2 L -25,2 z" style="opacity:1;fill:#fff;fill-opacity:0;fill-rule:nonzero;stroke:none;stroke-width:.59999996;stroke-linecap:round;stroke-linejoin:round;stroke-miterlimit:4;stroke-dashoffset:0;stroke-opacity:1"/><path style="fill:url(#linearGradient3203);fill-opacity:1;fill-rule:nonzero;stroke:none" id="path2425" d="m -25,2 0,11 11,0 0,-11 z"/></g><rect style="opacity:1;fill:#4e9a06;fill-opacity:1;fill-rule:nonzero;stroke:none;stroke-width:6;stroke-linecap:round;stroke-linejoin:round;stroke-miterlimit:4;stroke-dasharray:none;stroke-dashoffset:0;stroke-opacity:1" id="plain-hint-overlay-stretch" width="2.033" height="2.077" x="-13" y="0" rx="0" ry="2.077"/></svg>