<svg xmlns="http://www.w3.org/2000/svg" xmlns:svg="http://www.w3.org/2000/svg" xmlns:xlink="http://www.w3.org/1999/xlink" id="svg3128" width="48" height="48"><defs id="defs3"><linearGradient id="linearGradient6020"><stop style="stop-color:#fff;stop-opacity:1" id="stop6022" offset="0"/><stop style="stop-color:#fff;stop-opacity:0" id="stop6024" offset="1"/></linearGradient><linearGradient id="linearGradient5966"><stop style="stop-color:#fff;stop-opacity:1" id="stop5968" offset="0"/><stop style="stop-color:#fff;stop-opacity:0" id="stop5970" offset="1"/></linearGradient><linearGradient id="linearGradient5820"><stop style="stop-color:#fff;stop-opacity:1" id="stop5822" offset="0"/><stop style="stop-color:#fff;stop-opacity:0" id="stop5824" offset="1"/></linearGradient><linearGradient id="linearGradient5806"><stop style="stop-color:#518417;stop-opacity:1" id="stop5808" offset="0"/><stop style="stop-color:#518417;stop-opacity:0" id="stop5810" offset="1"/></linearGradient><linearGradient id="linearGradient5796"><stop style="stop-color:#fff;stop-opacity:1" id="stop5798" offset="0"/><stop style="stop-color:#fff;stop-opacity:0" id="stop5800" offset="1"/></linearGradient><linearGradient id="linearGradient5775"><stop style="stop-color:#aef16e;stop-opacity:1" id="stop5777" offset="0"/><stop style="stop-color:#518417;stop-opacity:1" id="stop5779" offset="1"/></linearGradient><linearGradient id="linearGradient5760"><stop style="stop-color:#fff;stop-opacity:1" id="stop5762" offset="0"/><stop style="stop-color:#fff;stop-opacity:0" id="stop5764" offset="1"/></linearGradient><linearGradient id="linearGradient5742"><stop style="stop-color:#73d216;stop-opacity:1" id="stop5744" offset="0"/><stop id="stop5750" offset=".816" style="stop-color:#4a890d;stop-opacity:1"/><stop style="stop-color:#76d715;stop-opacity:1" id="stop5746" offset="1"/></linearGradient><linearGradient id="linearGradient5634"><stop style="stop-color:#69ab21;stop-opacity:1" id="stop5636" offset="0"/><stop style="stop-color:#518417;stop-opacity:1" id="stop5638" offset="1"/></linearGradient><linearGradient id="linearGradient3974"><stop style="stop-color:#fff;stop-opacity:.91503268" id="stop3976" offset="0"/><stop style="stop-color:#fff;stop-opacity:.07920792" id="stop3978" offset="1"/></linearGradient><linearGradient id="linearGradient3950"><stop style="stop-color:#000;stop-opacity:1" id="stop3952" offset="0"/><stop style="stop-color:#000;stop-opacity:0" id="stop3954" offset="1"/></linearGradient><linearGradient id="linearGradient3942"><stop style="stop-color:#b3b3b3;stop-opacity:1" id="stop3944" offset="0"/><stop style="stop-color:#535353;stop-opacity:1" id="stop3946" offset="1"/></linearGradient><linearGradient id="linearGradient3924"><stop style="stop-color:#85d72a;stop-opacity:1" id="stop3926" offset="0"/><stop style="stop-color:#3e6514;stop-opacity:1" id="stop3928" offset="1"/></linearGradient><linearGradient id="linearGradient3914"><stop style="stop-color:#fff;stop-opacity:1" id="stop3916" offset="0"/><stop style="stop-color:#fff;stop-opacity:1" id="stop4076" offset=".288"/><stop style="stop-color:#cdcdcd;stop-opacity:1" id="stop4074" offset=".612"/><stop style="stop-color:#fff;stop-opacity:1" id="stop3918" offset="1"/></linearGradient><radialGradient id="radialGradient3930" cx="16.106" cy="14.753" r="48.36" fx="16.106" fy="14.753" gradientTransform="scale(0.999987,1.000013)" gradientUnits="userSpaceOnUse" xlink:href="#linearGradient3924"/><radialGradient id="radialGradient3956" cx="25.076" cy="24.44" r="25.745" fx="25.076" fy="24.44" gradientTransform="scale(0.999978,1.000022)" gradientUnits="userSpaceOnUse" xlink:href="#linearGradient3950"/><radialGradient id="radialGradient5640" cx="24.574" cy="5.649" r="21.383" fx="24.574" fy="5.649" gradientTransform="matrix(1.1117706,0,0,1.0607354,-3.2466235,-0.8661662)" gradientUnits="userSpaceOnUse" xlink:href="#linearGradient5634"/><radialGradient id="radialGradient5748" cx="24.574" cy="16.191" r="21.383" fx="24.574" fy="16.191" gradientTransform="matrix(1.3839909,0,0,1.3204594,-9.9360947,-2.9353303)" gradientUnits="userSpaceOnUse" xlink:href="#linearGradient5742"/><radialGradient id="radialGradient5766" cx="25.49" cy="29.74" r="13.979" fx="25.49" fy="29.74" gradientTransform="matrix(3.2667488,0,0,3.5652225,-56.739347,-68.801236)" gradientUnits="userSpaceOnUse" xlink:href="#linearGradient5760"/><radialGradient id="radialGradient5781" cx="26.99" cy="38.446" r="16.884" fx="26.99" fy="38.446" gradientTransform="matrix(1.1342075,0,0,1.233236,-4.081849,-5.1789908)" gradientUnits="userSpaceOnUse" xlink:href="#linearGradient5775"/><radialGradient id="radialGradient5802" cx="25.809" cy="20.621" r="21.183" fx="25.809" fy="20.621" gradientTransform="matrix(2.1681194,0,0,0.5958808,-30.148454,6.6580544)" gradientUnits="userSpaceOnUse" xlink:href="#linearGradient5796"/><linearGradient id="linearGradient5812" x1="26.401" x2="25.5" y1="39.524" y2="34.934" gradientUnits="userSpaceOnUse" xlink:href="#linearGradient5806"/><radialGradient id="radialGradient5826" cx="27.594" cy="33.119" r="11.531" fx="27.594" fy="33.119" gradientTransform="matrix(1.7817587,0,0,0.7808023,-21.956448,4.6316851)" gradientUnits="userSpaceOnUse" xlink:href="#linearGradient5820"/><radialGradient id="radialGradient5972" cx="25.809" cy="5.698" r="20.683" fx="25.809" fy="5.698" gradientTransform="matrix(2.5628607,-6.5452213e-8,2.6902708e-8,0.95881,-42.33306,6.3166102e-2)" gradientUnits="userSpaceOnUse" xlink:href="#linearGradient5966"/><radialGradient id="radialGradient5976" cx="25.809" cy="5.698" r="20.683" fx="25.809" fy="5.698" gradientTransform="matrix(2.4299935,-6.5025315e-8,2.5507983e-8,0.9525564,-36.907269,0.2703136)" gradientUnits="userSpaceOnUse" xlink:href="#linearGradient5966"/><filter id="filter6014"><feGaussianBlur id="feGaussianBlur6016" stdDeviation=".342"/></filter><linearGradient id="linearGradient6026" x1="27.735" x2="27.515" y1="1.75" y2="18.75" gradientTransform="matrix(1.1238786,0,0,1.0726089,-3.8030674,-1.4003195)" gradientUnits="userSpaceOnUse" xlink:href="#linearGradient6020"/></defs><metadata id="metadata4"/><g id="layer1"><path id="path2441" d="M 47.291091,24.084321 C 47.291091,36.319655 36.892291,46.236867 24.072742,46.236867 C 11.250191,46.236867 0.8563973,36.319655 0.8563973,24.084321 C 0.8563973,11.849938 11.251192,1.9336863 24.072742,1.9336863 C 36.892291,1.9336863 47.291091,11.850894 47.291091,24.084321 z" style="font-size:20.48839951px;fill:url(#radialGradient5748);fill-opacity:1;fill-rule:nonzero;stroke:url(#radialGradient5640);stroke-width:1.08593047;stroke-miterlimit:4;stroke-opacity:1;font-family:TrebuchetMS-Bold"/><path style="font-size:20.48839951px;fill:url(#radialGradient5766);fill-opacity:1;fill-rule:nonzero;stroke:url(#radialGradient5781);stroke-width:1.0979445;stroke-miterlimit:4;stroke-opacity:1;font-family:TrebuchetMS-Bold" id="path2447" d="M 23.864551,3.5513244 C 17.564381,3.5513244 11.906674,6.1707321 8.0154296,10.328432 C 10.34389,10.937986 11.969539,11.443151 12.493819,11.608739 C 12.500107,11.272763 12.557939,8.2477829 12.557939,8.2477829 L 12.604459,8.1457879 L 12.726415,8.1121923 C 13.441798,8.2117847 28.717607,10.374028 35.152306,13.95337 C 35.948156,14.399738 36.341682,14.867703 36.834531,15.348868 C 38.612309,17.103142 40.965912,24.408214 41.214854,25.917707 L 41.118045,26.067696 C 41.026264,26.100093 40.803726,26.252481 40.510781,26.443268 C 39.009604,27.445197 35.499313,29.788626 30.99955,29.407055 C 26.952402,29.062678 21.670619,26.848841 15.3013,22.84593 C 15.581671,23.477082 16.909346,26.476867 17.130626,26.98083 L 17.21989,27.080421 C 18.142725,27.535187 26.991379,31.840477 31.381762,31.752884 C 34.924742,31.685688 38.710374,30.035809 40.224125,29.169471 L 40.70063,29.085475 C 40.835158,29.186272 40.816299,29.383056 40.774809,29.564244 C 40.681771,29.978212 40.471807,30.737758 40.327221,31.090528 L 40.207781,31.386911 C 40.035536,31.823678 39.868318,32.24125 39.546459,32.493231 C 38.653799,33.268374 37.229312,33.881529 34.998917,34.815064 C 31.548974,36.253759 25.954131,37.163296 20.759103,37.134496 C 18.8996,37.094898 17.100451,36.896913 15.520065,36.725325 C 12.222249,36.36655 9.548042,36.078573 7.9475394,37.264088 C 11.840041,41.462583 17.526665,44.113192 23.863297,44.113192 C 35.597382,44.113192 45.113642,35.033448 45.113642,23.833455 C 45.113642,12.634663 35.598637,3.5537242 23.863297,3.5537242 L 23.864551,3.5513244 z"/><path style="opacity:.56024098;fill:url(#radialGradient5826);fill-opacity:1;fill-rule:nonzero;stroke:none;stroke-width:1;stroke-linecap:butt;stroke-linejoin:miter;marker:none;marker-start:none;marker-mid:none;marker-end:none;stroke-miterlimit:4;stroke-dasharray:none;stroke-dashoffset:0;stroke-opacity:1;visibility:visible;display:inline;overflow:visible;enable-background:accumulate" id="path5783" d="M 14.249232,21.727809 L 16.707716,27.493082 C 26.148634,32.204761 32.316837,34.327594 40.168682,30.040528 C 32.45005,36.322071 23.967491,31.79584 15.93505,28.90088 L 14.249232,21.727809 z"/><path style="opacity:1;fill:none;fill-opacity:1;fill-rule:nonzero;stroke:url(#radialGradient5802);stroke-width:2.13122559;stroke-linecap:butt;stroke-linejoin:miter;marker:none;marker-start:none;marker-mid:none;marker-end:none;stroke-miterlimit:4;stroke-dasharray:none;stroke-dashoffset:0;stroke-opacity:1;visibility:visible;display:inline;overflow:visible;enable-background:accumulate" id="path5794" d="M 46.49227,23.781593 A 20.682873,20.682873 0 1 1 5.126524,23.781593 A 20.682873,20.682873 0 1 1 46.49227,23.781593 z" transform="matrix(1.0546781,0,0,1.0065652,-3.4077751,-0.2089221)"/><path id="path5818" d="M 34.75,19.75 A 5.375,5.375 0 1 1 24,19.75 A 5.375,5.375 0 1 1 34.75,19.75 z" transform="matrix(1.0454684,0,0,0.9946576,-1.3944061,1.9660042)" style="opacity:.33734939;fill:#bad79e;fill-opacity:1;fill-rule:nonzero;stroke:#fff;stroke-width:1.07668364;stroke-linecap:butt;stroke-linejoin:miter;marker:none;marker-start:none;marker-mid:none;marker-end:none;stroke-miterlimit:4;stroke-dasharray:none;stroke-dashoffset:0;stroke-opacity:1;visibility:visible;display:inline;overflow:visible;enable-background:accumulate"/><path style="opacity:1;fill:none;fill-opacity:1;fill-rule:nonzero;stroke:url(#linearGradient5812);stroke-width:.79876208;stroke-linecap:butt;stroke-linejoin:miter;marker:none;marker-start:none;marker-mid:none;marker-end:none;stroke-miterlimit:4;stroke-dasharray:none;stroke-dashoffset:0;stroke-opacity:1;visibility:visible;display:inline;overflow:visible;enable-background:accumulate" id="path5804" d="M 39.875,24.75 A 14.375,14.375 0 1 1 11.125,24.75 A 14.375,14.375 0 1 1 39.875,24.75 z" transform="matrix(1.4070255,0,0,1.342839,-12.006709,-9.429277)"/><path style="opacity:1;fill:#bad79e;fill-opacity:1;fill-rule:nonzero;stroke:#518417;stroke-width:1.07668364;stroke-linecap:butt;stroke-linejoin:miter;marker:none;marker-start:none;marker-mid:none;marker-end:none;stroke-miterlimit:4;stroke-dasharray:none;stroke-dashoffset:0;stroke-opacity:1;visibility:visible;display:inline;overflow:visible;enable-background:accumulate" id="path5814" d="M 34.75,19.75 A 5.375,5.375 0 1 1 24,19.75 A 5.375,5.375 0 1 1 34.75,19.75 z" transform="matrix(1.0454684,0,0,0.9946576,-1.3944061,0.8933953)"/><path id="path5816" d="M 34.75,19.75 A 5.375,5.375 0 1 1 24,19.75 A 5.375,5.375 0 1 1 34.75,19.75 z" transform="matrix(0.5465523,0,0,0.3170629,14.35001,13.37318)" style="opacity:1;fill:#518417;fill-opacity:1;fill-rule:nonzero;stroke:none;stroke-width:1.50437963;stroke-linecap:butt;stroke-linejoin:miter;marker:none;marker-start:none;marker-mid:none;marker-end:none;stroke-miterlimit:4;stroke-dasharray:none;stroke-dashoffset:0;stroke-opacity:1;visibility:visible;display:inline;overflow:visible;enable-background:accumulate"/><path style="opacity:.72891564;fill:#bad79e;fill-opacity:1;fill-rule:nonzero;stroke:none;stroke-width:1;stroke-linecap:butt;stroke-linejoin:miter;marker:none;marker-start:none;marker-mid:none;marker-end:none;stroke-miterlimit:4;stroke-dasharray:none;stroke-dashoffset:0;stroke-opacity:1;visibility:visible;display:inline;overflow:visible;enable-background:accumulate" id="path5944" d="M 7.1547487,10.800606 L 13.055111,12.409521 L 13.055111,8.7894648 C 13.055111,8.7894648 30.415518,11.06992 34.830259,14.152509 C 38.801088,16.925136 40.730622,25.951206 40.449651,25.414902 C 40.168682,24.878597 37.858424,17.754797 34.127834,14.956966 C 30.176983,11.993943 14.45996,10.264302 14.45996,10.264302 L 14.319475,13.884357 L 7.1547487,10.800606 z"/><path style="opacity:.42771086;fill:url(#radialGradient5972);fill-opacity:1;fill-rule:nonzero;stroke:none;stroke-width:2.13122559;stroke-linecap:butt;stroke-linejoin:miter;marker:none;marker-start:none;marker-mid:none;marker-end:none;stroke-miterlimit:4;stroke-dasharray:none;stroke-dashoffset:0;stroke-opacity:1;visibility:visible;display:inline;overflow:visible;enable-background:accumulate" id="path5964" d="M 22.678322,2.9236348 C 11.157865,3.4815659 1.9919315,12.606174 1.9919315,23.738951 C 1.9919315,27.427158 3.0013735,30.889782 4.7665068,33.895215 C 8.453886,35.238356 12.39612,35.973396 16.496989,35.973396 C 28.178993,35.973396 38.621964,30.072053 45.401742,20.856314 C 43.931157,10.725434 34.819844,2.9236347 23.802199,2.9236348 C 23.425912,2.9236348 23.049949,2.9056372 22.678322,2.9236348 z"/><path style="opacity:1;fill:#fff;fill-opacity:1;fill-rule:nonzero;stroke:none;stroke-width:2;stroke-linecap:butt;stroke-linejoin:miter;marker:none;marker-start:none;marker-mid:none;marker-end:none;stroke-miterlimit:4;stroke-dasharray:none;stroke-dashoffset:0;stroke-opacity:1;visibility:visible;display:inline;overflow:visible;filter:url(#filter6014);enable-background:accumulate" id="path5985" d="M 24.375,3.3862276 C 13.533977,3.3862276 4.7354651,12.18474 4.7354651,23.025763 C 4.7354651,23.225166 4.7589543,23.415794 4.7648655,23.613771 C 5.0803391,13.048153 13.733382,5.6229079 24.375,5.6229079 C 35.016618,5.6229079 43.669661,13.048153 43.985134,23.613771 C 43.991046,23.415794 44.014535,23.225166 44.014535,23.025763 C 44.014535,12.18474 35.216023,3.3862276 24.375,3.3862276 z" transform="matrix(1.1238786,0,0,1.0726089,-3.8030674,-1.4003195)"/><path id="path6018" d="M 23.591473,2.2317782 C 11.40748,2.2317782 1.5190204,11.669141 1.5190204,23.297317 C 1.5190204,23.511199 1.5454194,23.715668 1.5520629,23.92802 C 1.9066168,12.595245 14.722253,8.3199272 23.591473,8.3199272 C 32.741662,8.3199272 45.27633,12.595245 45.630882,23.92802 C 45.637526,23.715668 45.663926,23.511199 45.663926,23.297317 C 45.663926,11.669141 35.775467,2.2317782 23.591473,2.2317782 z" style="opacity:1;fill:url(#linearGradient6026);fill-opacity:1;fill-rule:nonzero;stroke:none;stroke-width:2;stroke-linecap:butt;stroke-linejoin:miter;marker:none;marker-start:none;marker-mid:none;marker-end:none;stroke-miterlimit:4;stroke-dasharray:none;stroke-dashoffset:0;stroke-opacity:1;visibility:visible;display:inline;overflow:visible;enable-background:accumulate"/></g></svg>